<svg aria-hidden="true" style="position: absolute; width: 0; height: 0; overflow: hidden;" version="1.1" xmlns="http://www.w3.org/2000/svg" xmlns:xlink="http://www.w3.org/1999/xlink">
<defs>
<symbol id="iconicon-check" viewBox="0 0 32 32">
<path fill="#fff" style="fill: var(--color1, #fff); stroke: var(--color1, #fff)" stroke="#fff" stroke-linejoin="miter" stroke-linecap="butt" stroke-miterlimit="4" stroke-width="0.4923" d="M4.817 15.39l-0.17-0.162-0.17 0.16-2.373 2.25 0.187 0.18 8.775 8.369 0.17-0.162 18.658-17.799-0.187-0.177-2.341-2.233-0.17 0.162-16.13 15.375-6.25-5.962z"></path>
</symbol>
<symbol id="iconicon-send" viewBox="0 0 32 32">
<path fill="#fff" style="fill: var(--color1, #fff)" d="M32 0l-32 18 10.227 3.788 15.773-14.788-11.998 16.186 0.010 0.004-0.012-0.004v8.814l5.735-6.691 7.265 2.691 5-28z"></path>
</symbol>
<symbol id="iconmail" viewBox="0 0 32 32">
<path d="M28 4h-24c-1.65 0-2.985 1.35-2.985 3l-0.015 18c0 1.65 1.35 3 3 3h24c1.65 0 3-1.35 3-3v-18c0-1.65-1.35-3-3-3zM27.4 10.375l-10.605 6.63c-0.48 0.3-1.11 0.3-1.59 0l-10.605-6.63c-0.375-0.24-0.6-0.645-0.6-1.080 0-1.005 1.095-1.605 1.95-1.080l10.050 6.285 10.050-6.285c0.855-0.525 1.95 0.075 1.95 1.080 0 0.435-0.225 0.84-0.6 1.080z"></path>
</symbol>
<symbol id="iconphone" viewBox="0 0 32 32">
<path d="M27.419 20.852l-4.201-0.48c-1.009-0.116-2.002 0.232-2.713 0.943l-3.044 3.044c-4.681-2.382-8.519-6.203-10.901-10.901l3.060-3.060c0.711-0.711 1.059-1.704 0.943-2.713l-0.48-4.168c-0.198-1.671-1.604-2.928-3.292-2.928h-2.862c-1.869 0-3.424 1.555-3.308 3.424 0.877 14.126 12.174 25.407 26.284 26.284 1.869 0.116 3.424-1.439 3.424-3.308v-2.862c0.016-1.671-1.241-3.077-2.911-3.275z"></path>
</symbol>
<symbol id="iconname" viewBox="0 0 32 32">
<path  d="M16 16c4.42 0 8-3.58 8-8s-3.58-8-8-8c-4.42 0-8 3.58-8 8s3.58 8 8 8zM16 20c-5.34 0-16 2.68-16 8v2c0 1.1 0.9 2 2 2h28c1.1 0 2-0.9 2-2v-2c0-5.32-10.66-8-16-8z"></path>
</symbol>
<symbol id="iconclose" viewBox="0 0 32 32">
<path d="M26.667 7.303l-1.97-1.97-7.808 7.808-7.808-7.808-1.97 1.97 7.808 7.808-7.808 7.808 1.97 1.97 7.808-7.808 7.808 7.808 1.97-1.97-7.808-7.808 7.808-7.808z"></path>
</symbol>
<symbol id="iconclient6" viewBox="0 0 32 32">
<path  d="M16.128 15.217c-0.115-0.148-0.184-0.337-0.184-0.542 0-0.020 0.001-0.040 0.002-0.060l-0 0.003v-0.871c0-0.267 0.060-0.469 0.182-0.608s0.329-0.208 0.623-0.207c0.277 0 0.474 0.059 0.59 0.177 0.127 0.151 0.189 0.335 0.174 0.52v0.205h-0.495v-0.207c0.002-0.068-0.003-0.136-0.015-0.203-0.009-0.049-0.034-0.091-0.071-0.12l-0-0c-0.044-0.030-0.099-0.048-0.158-0.048-0.007 0-0.015 0-0.022 0.001l0.001-0c-0.006-0-0.014-0.001-0.021-0.001-0.062 0-0.12 0.019-0.168 0.051l0.001-0.001c-0.041 0.033-0.070 0.079-0.082 0.131l-0 0.002c-0.013 0.060-0.020 0.128-0.020 0.198 0 0.006 0 0.012 0 0.018v-0.001 1.056c-0.008 0.102 0.014 0.204 0.063 0.296 0.026 0.032 0.059 0.056 0.097 0.071l0.002 0.001c0.029 0.012 0.063 0.018 0.098 0.018 0.011 0 0.021-0.001 0.031-0.002l-0.001 0c0.006 0.001 0.014 0.001 0.021 0.001 0.058 0 0.111-0.018 0.155-0.049l-0.001 0.001c0.038-0.032 0.065-0.076 0.074-0.127l0-0.001c0.011-0.070 0.017-0.141 0.015-0.212v-0.214h0.495v0.196c0.001 0.015 0.002 0.034 0.002 0.052 0 0.188-0.065 0.361-0.174 0.497l0.001-0.002c-0.114 0.129-0.308 0.194-0.593 0.194s-0.501-0.069-0.622-0.213zM18.191 15.227c-0.125-0.136-0.188-0.333-0.188-0.594v-0.916c0-0.259 0.063-0.454 0.188-0.587s0.334-0.199 0.628-0.198c0.291 0 0.499 0.066 0.625 0.198s0.189 0.328 0.189 0.587v0.915c0 0.259-0.063 0.457-0.191 0.594s-0.334 0.204-0.622 0.204-0.501-0.069-0.628-0.203zM19.049 15.007c0.045-0.085 0.065-0.178 0.059-0.271v-1.121c0.001-0.009 0.001-0.020 0.001-0.030 0-0.086-0.022-0.167-0.060-0.238l0.001 0.003c-0.026-0.032-0.060-0.057-0.1-0.072l-0.002-0.001c-0.029-0.011-0.062-0.018-0.097-0.018-0.012 0-0.024 0.001-0.035 0.002l0.001-0c-0.010-0.001-0.022-0.002-0.034-0.002-0.035 0-0.069 0.007-0.099 0.018l0.002-0.001c-0.041 0.015-0.075 0.040-0.101 0.072l-0 0c-0.045 0.083-0.066 0.175-0.059 0.266v1.126c-0.006 0.093 0.014 0.186 0.059 0.271 0.029 0.028 0.065 0.051 0.104 0.067 0.038 0.015 0.081 0.024 0.127 0.024s0.090-0.009 0.13-0.025l-0.002 0.001c0.040-0.016 0.075-0.039 0.104-0.067v-0.005zM20.228 12.958h0.533l0.401 1.689 0.411-1.689h0.519l0.053 2.438h-0.384l-0.041-1.694-0.396 1.694h-0.308l-0.41-1.701-0.038 1.701h-0.388l0.048-2.438zM22.741 12.958h0.831c0.479 0 0.718 0.231 0.718 0.692 0 0.442-0.252 0.663-0.756 0.662h-0.283v1.083h-0.513l0.003-2.438zM23.451 14c0.051 0.006 0.102 0.002 0.151-0.012s0.094-0.035 0.131-0.065c0.059-0.082 0.085-0.179 0.074-0.275 0-0.008 0-0.017 0-0.027 0-0.069-0.009-0.136-0.026-0.2l0.001 0.005c-0.008-0.026-0.021-0.048-0.038-0.067l0 0c-0.018-0.020-0.039-0.036-0.063-0.048l-0.001-0.001c-0.060-0.025-0.129-0.040-0.202-0.040-0.009 0-0.019 0-0.028 0.001l0.001-0h-0.199v0.729h0.199zM25.029 12.958h0.551l0.565 2.438h-0.478l-0.112-0.562h-0.491l-0.115 0.562h-0.485l0.565-2.438zM25.5 14.552l-0.192-1.023-0.192 1.023h0.383zM26.601 12.958h0.359l0.687 1.391v-1.391h0.426v2.438h-0.341l-0.691-1.452v1.452h-0.44l0.001-2.438zM29.070 14.466l-0.571-1.505h0.481l0.349 0.967 0.327-0.967h0.471l-0.564 1.505v0.93h-0.492v-0.93zM16.92 16.462v0.127h-0.418v0.991h-0.175v-0.991h-0.421v-0.127h1.014zM18.232 17.581h-0.136c-0.001 0-0.002 0-0.004 0-0.013 0-0.025-0.004-0.035-0.011l0 0c-0.010-0.006-0.017-0.015-0.022-0.025l-0-0-0.121-0.266h-0.581l-0.121 0.266c-0.004 0.012-0.010 0.022-0.019 0.030l-0 0c-0.010 0.007-0.022 0.011-0.035 0.011-0.001 0-0.002-0-0.003-0h-0.135l0.513-1.118h0.178l0.519 1.114zM17.383 17.166h0.484l-0.205-0.455c-0.013-0.029-0.026-0.064-0.036-0.1l-0.001-0.006c-0.007 0.021-0.013 0.042-0.019 0.059l-0.019 0.047-0.203 0.454zM19.116 17.471c0.032 0.002 0.064 0.002 0.097 0 0.027-0.002 0.055-0.007 0.082-0.013 0.025-0.005 0.050-0.012 0.074-0.020 0.023-0.008 0.045-0.018 0.069-0.027v-0.251h-0.205c-0.001 0-0.001 0-0.002 0-0.010 0-0.019-0.003-0.026-0.009l0 0c-0.003-0.002-0.006-0.005-0.008-0.009l-0-0c-0.002-0.003-0.002-0.006-0.002-0.010 0-0 0-0.001 0-0.001v0-0.086h0.398v0.429c-0.062 0.039-0.134 0.070-0.211 0.090l-0.005 0.001c-0.042 0.011-0.085 0.018-0.128 0.023-0.050 0.005-0.1 0.007-0.15 0.007-0.002 0-0.004 0-0.007 0-0.090 0-0.177-0.015-0.257-0.043l0.006 0.002c-0.079-0.027-0.147-0.067-0.206-0.118l0.001 0.001c-0.055-0.049-0.099-0.108-0.131-0.174l-0.001-0.003c-0.030-0.066-0.047-0.143-0.047-0.225 0-0.003 0-0.005 0-0.008v0c-0-0.002-0-0.004-0-0.007 0-0.082 0.017-0.16 0.048-0.231l-0.001 0.004c0.029-0.066 0.075-0.127 0.132-0.177s0.128-0.090 0.205-0.116c0.088-0.029 0.181-0.043 0.275-0.042 0.048 0 0.095 0.003 0.142 0.010 0.042 0.006 0.083 0.015 0.122 0.028 0.036 0.011 0.070 0.027 0.103 0.044s0.061 0.037 0.089 0.058l-0.049 0.069c-0.004 0.006-0.010 0.012-0.016 0.015l-0 0c-0.007 0.004-0.015 0.006-0.023 0.006h-0c-0.012-0-0.023-0.003-0.032-0.009l0 0c-0.021-0.010-0.037-0.019-0.053-0.028l0.003 0.002c-0.019-0.011-0.042-0.021-0.065-0.029l-0.003-0.001c-0.026-0.009-0.058-0.018-0.090-0.024l-0.004-0.001c-0.037-0.006-0.080-0.010-0.123-0.010-0.002 0-0.005 0-0.007 0h0c-0.002-0-0.004-0-0.006-0-0.069 0-0.135 0.011-0.196 0.032l0.004-0.001c-0.057 0.020-0.109 0.050-0.151 0.088-0.041 0.038-0.073 0.084-0.094 0.136l-0.001 0.003c-0.022 0.055-0.034 0.119-0.034 0.186s0.013 0.131 0.036 0.19l-0.001-0.004c0.022 0.053 0.057 0.101 0.103 0.141 0.042 0.038 0.093 0.069 0.149 0.088 0.065 0.019 0.134 0.027 0.203 0.022zM20.75 17.453h0.56v0.127h-0.731v-1.118h0.175l-0.004 0.991zM21.893 17.581h-0.175v-1.118h0.175v1.118zM22.545 16.468c0.011 0.005 0.019 0.012 0.027 0.020l0 0 0.75 0.843c-0-0.006-0.001-0.013-0.001-0.020s0-0.014 0.001-0.021l-0 0.001v-0.833h0.153v1.123h-0.088c-0.002 0-0.004 0-0.006 0-0.012 0-0.023-0.002-0.033-0.007l0.001 0c-0.011-0.006-0.020-0.013-0.027-0.021l-0-0-0.749-0.842v0.869h-0.147v-1.118h0.091c0.010 0 0.020 0.002 0.029 0.005zM24.766 16.462v0.123h-0.621v0.369h0.504v0.119h-0.504v0.382h0.621v0.123h-0.802v-1.115h0.802zM6.389 9.557l7.787 1.909v6.689l-7.787-1.908v-6.69zM5.889 8.986v7.586l8.785 2.154v-7.585l-8.785-2.155z"></path>
<path  d="M10.597 22.247l-8.786-2.156v-7.584l8.786 2.155v7.585z"></path>
<path  d="M6.035 9.47l7.685 1.885-3.269 2.823-7.686-1.886 3.269-2.822zM5.889 8.986l-4.078 3.52 8.786 2.155 4.077-3.521-8.785-2.155zM11.092 21.82l3.582-3.094-3.583-0.878v3.973z"></path>
</symbol>
<symbol id="iconclient5" viewBox="0 0 32 32">
<path d="M8.078 20.448c0.074 0.083 0.113 0.188 0.111 0.295 0 0.007 0.001 0.014 0.001 0.022 0 0.066-0.015 0.128-0.041 0.184l0.001-0.003c-0.032 0.067-0.076 0.123-0.131 0.168l-0.001 0.001c-0.125 0.086-0.28 0.138-0.446 0.138-0.018 0-0.036-0.001-0.054-0.002l0.002 0h-0.877v-1.869h0.859c0.015-0.001 0.033-0.002 0.051-0.002 0.158 0 0.305 0.047 0.428 0.127l-0.003-0.002c0.056 0.043 0.1 0.097 0.128 0.157s0.042 0.127 0.038 0.193c0.005 0.103-0.030 0.204-0.1 0.286-0.067 0.074-0.159 0.126-0.261 0.146 0.116 0.019 0.221 0.076 0.296 0.16zM7.049 20.166h0.367c0.083 0.005 0.166-0.017 0.233-0.062 0.027-0.022 0.048-0.050 0.062-0.082l0.001-0.001c0.011-0.024 0.017-0.052 0.017-0.082 0-0.006-0-0.012-0.001-0.018l0 0.001c0-0.005 0.001-0.010 0.001-0.016 0-0.030-0.006-0.059-0.018-0.085l0.001 0.001c-0.014-0.033-0.035-0.061-0.061-0.083l-0-0c-0.059-0.040-0.132-0.064-0.211-0.064-0.010 0-0.021 0-0.031 0.001l0.001-0h-0.361v0.491zM7.686 20.883c0.029-0.023 0.052-0.051 0.067-0.084l0.001-0.001c0.012-0.026 0.020-0.057 0.020-0.090 0-0.005-0-0.010-0.001-0.015l0 0.001c0-0.004 0-0.009 0-0.014 0-0.033-0.008-0.065-0.021-0.093l0.001 0.001c-0.016-0.034-0.040-0.063-0.068-0.086l-0-0c-0.063-0.043-0.141-0.068-0.225-0.068-0.009 0-0.017 0-0.026 0.001l0.001-0h-0.385v0.514h0.39c0.088 0.005 0.175-0.018 0.246-0.065zM9.832 21.252l-0.477-0.731h-0.18v0.731h-0.411v-1.869h0.778c0.017-0.001 0.036-0.002 0.055-0.002 0.183 0 0.352 0.060 0.488 0.162l-0.002-0.002c0.109 0.101 0.175 0.235 0.185 0.377 0.001 0.012 0.001 0.025 0.001 0.039 0 0.136-0.049 0.261-0.129 0.358l0.001-0.001c-0.097 0.099-0.224 0.168-0.367 0.189l-0.004 0 0.509 0.747h-0.447zM9.176 20.267h0.336c0.233 0 0.35-0.094 0.35-0.283 0-0.005 0-0.010 0-0.015 0-0.035-0.007-0.069-0.020-0.1l0.001 0.002c-0.016-0.038-0.038-0.070-0.067-0.097l-0-0c-0.064-0.048-0.144-0.077-0.232-0.077-0.011 0-0.023 0-0.034 0.001l0.001-0h-0.34l0.004 0.569zM12.079 20.875h-0.819l-0.145 0.376h-0.431l0.752-1.848h0.466l0.749 1.848h-0.431l-0.142-0.376zM11.969 20.593l-0.299-0.789-0.299 0.789h0.598zM14.89 21.252h-0.408l-0.915-1.271v1.271h-0.407v-1.869h0.407l0.915 1.279v-1.279h0.408v1.869zM17.218 20.805c-0.085 0.141-0.213 0.256-0.369 0.33-0.159 0.075-0.344 0.118-0.54 0.118-0.012 0-0.023-0-0.035-0l0.002 0h-0.726v-1.869h0.726c0.010-0 0.022-0 0.034-0 0.195 0 0.381 0.042 0.548 0.119l-0.008-0.003c0.156 0.072 0.285 0.186 0.369 0.326 0.084 0.152 0.128 0.32 0.128 0.491s-0.044 0.338-0.128 0.49zM16.751 20.76c0.111-0.116 0.179-0.273 0.18-0.446v-0c0-0.164-0.064-0.322-0.18-0.446-0.126-0.1-0.288-0.161-0.464-0.161-0.016 0-0.033 0.001-0.049 0.002l0.002-0h-0.283v1.21h0.283c0.014 0.001 0.030 0.001 0.047 0.001 0.176 0 0.337-0.060 0.466-0.161l-0.002 0.001zM12.334 8.986s5.264 1.82 5.153 4.453v4.454s-5.261-1.82-5.151-4.454l-0.002-4.453zM22.177 16.851c0.994-0.626 2.144-1.014 3.345-1.128v-1.395c-1.383 0.488-2.557 1.374-3.345 2.523z"></path>
<path  d="M21.579 17.271c0.814-1.5 2.224-2.658 3.942-3.235v-4.018s-7.497 2.592-7.339 6.342v6.341s0.334-0.116 0.86-0.333c0-0.203 0-0.407 0.024-0.613 0.155-1.741 1.059-3.354 2.513-4.485z"></path>
<path  d="M20.866 19.627c0.039-0.44 0.127-0.875 0.262-1.298-0.905 0.977-1.454 2.189-1.567 3.465-0.011 0.12-0.017 0.241-0.020 0.365 0.625-0.274 1.099-0.506 1.563-0.755l-0.121 0.059c-0.133-0.604-0.172-1.222-0.117-1.836zM21.165 19.649c-0.015 0.154-0.023 0.334-0.023 0.515 0 0.406 0.042 0.803 0.122 1.186l-0.007-0.037c2.048-1.122 4.35-2.856 4.261-4.952v-0.183c-1.464 0.15-2.833 0.736-3.897 1.667-0.235 0.528-0.397 1.14-0.455 1.782l-0.002 0.022z"></path>
</symbol>
<symbol id="iconclient4" viewBox="0 0 32 32">
<path d="M7.289 13.314h-0.001c-0.724 0-1.311 0.521-1.311 1.165v0.001c0 0.643 0.587 1.165 1.311 1.165h0.001c0.724 0 1.311-0.522 1.311-1.165v-0.001c0-0.644-0.587-1.165-1.311-1.165zM16.965 12.942c-0.002-0.894-0.402-1.75-1.113-2.382s-1.675-0.988-2.68-0.99c-1.006 0.002-1.97 0.357-2.681 0.989s-1.112 1.489-1.114 2.383v4.928s7.588-0.751 7.589-4.927v-0.001zM3.321 19.487c0.002 0.622 0.281 1.218 0.775 1.657s1.165 0.687 1.864 0.689c0.699-0.002 1.37-0.25 1.864-0.689s0.773-1.035 0.775-1.657v-3.429s-5.279 0.523-5.279 3.428zM5.96 20.101c-0.137 0-0.27-0.036-0.384-0.104-0.111-0.065-0.198-0.159-0.253-0.272l-0.002-0.004c-0.033-0.069-0.052-0.149-0.052-0.235 0-0.043 0.005-0.084 0.014-0.124l-0.001 0.004c0.027-0.119 0.092-0.229 0.189-0.315s0.22-0.145 0.354-0.168c0.041-0.008 0.087-0.012 0.135-0.012 0.095 0 0.186 0.017 0.27 0.048l-0.005-0.002c0.127 0.047 0.234 0.125 0.31 0.226s0.117 0.22 0.117 0.341c0 0.081-0.017 0.161-0.052 0.236-0.037 0.078-0.088 0.145-0.149 0.199l-0.001 0.001c-0.064 0.057-0.14 0.103-0.225 0.134-0.079 0.030-0.17 0.047-0.265 0.047-0 0-0 0-0.001 0h0v-0.002zM11.296 19.763h-0.51v0.526h-0.265v-1.288h0.839v0.215h-0.573v0.333h0.51v0.214zM12.571 19.674c0 0.127-0.022 0.238-0.067 0.333s-0.109 0.169-0.193 0.221c-0.079 0.049-0.174 0.078-0.277 0.078-0.003 0-0.007-0-0.010-0h0.001c-0.107 0-0.202-0.026-0.286-0.077-0.085-0.053-0.151-0.128-0.193-0.216l-0.001-0.003c-0.044-0.093-0.070-0.202-0.070-0.318 0-0.004 0-0.008 0-0.012v0.001-0.063c0-0.127 0.023-0.238 0.068-0.334s0.111-0.171 0.194-0.222c0.084-0.052 0.179-0.078 0.287-0.078s0.202 0.026 0.286 0.078c0.084 0.051 0.148 0.125 0.194 0.222s0.069 0.207 0.069 0.333v0.057zM12.303 19.616c0-0.135-0.024-0.238-0.072-0.308-0.043-0.064-0.115-0.105-0.197-0.105-0.004 0-0.007 0-0.011 0l0.001-0c-0.003-0-0.007-0-0.010-0-0.081 0-0.153 0.041-0.196 0.104l-0.001 0.001c-0.048 0.069-0.073 0.17-0.073 0.304v0.063c0 0.131 0.024 0.233 0.072 0.306s0.118 0.109 0.209 0.109c0.003 0 0.007 0 0.010 0 0.081 0 0.152-0.041 0.194-0.104l0.001-0.001c0.048-0.070 0.072-0.172 0.072-0.306v-0.063zM13.432 19.951c0-0.002 0-0.005 0-0.007 0-0.044-0.021-0.082-0.053-0.107l-0-0c-0.035-0.027-0.099-0.056-0.191-0.085-0.085-0.026-0.157-0.056-0.226-0.092l0.008 0.004c-0.146-0.079-0.219-0.186-0.219-0.319 0-0.069 0.019-0.132 0.058-0.186s0.096-0.098 0.169-0.128c0.074-0.030 0.156-0.046 0.248-0.046s0.174 0.017 0.246 0.050c0.072 0.033 0.128 0.080 0.167 0.141s0.060 0.13 0.060 0.207h-0.266c0-0.059-0.018-0.105-0.056-0.137s-0.089-0.049-0.156-0.049c-0.065 0-0.115 0.014-0.151 0.042-0.033 0.024-0.054 0.062-0.054 0.105 0 0.001 0 0.002 0 0.003v-0c0 0.042 0.021 0.077 0.063 0.105s0.105 0.055 0.187 0.079c0.151 0.045 0.261 0.102 0.33 0.169s0.104 0.151 0.104 0.251c0 0.111-0.042 0.199-0.127 0.263s-0.197 0.095-0.34 0.095c-0.099 0-0.189-0.018-0.271-0.054-0.076-0.032-0.14-0.084-0.186-0.148l-0.001-0.001c-0.040-0.059-0.063-0.133-0.063-0.211 0-0.003 0-0.006 0-0.009v0h0.266c0 0.142 0.085 0.213 0.255 0.213 0.063 0 0.112-0.013 0.148-0.038 0.032-0.023 0.053-0.061 0.053-0.103 0-0.002-0-0.004-0-0.005v0zM14.848 19.216h-0.394v1.073h-0.266v-1.073h-0.389v-0.215h1.049v0.215zM15.774 19.731h-0.509v0.345h0.598v0.213h-0.863v-1.288h0.862v0.215h-0.596v0.307h0.51v0.208zM16.495 19.817h-0.211v0.472h-0.265v-1.288h0.479c0.152 0 0.27 0.034 0.352 0.102s0.124 0.164 0.124 0.287c0 0.088-0.019 0.162-0.057 0.22-0.043 0.062-0.101 0.11-0.17 0.139l-0.003 0.001 0.278 0.526v0.012h-0.285l-0.241-0.471zM16.284 19.602h0.214c0.066 0 0.118-0.017 0.155-0.050 0.034-0.033 0.055-0.080 0.055-0.131 0-0.003-0-0.007-0-0.010l0 0c0-0.061-0.017-0.109-0.052-0.143s-0.087-0.052-0.159-0.052h-0.213v0.386zM17.892 19.835v0.454h-0.265v-1.288h0.502c0.097 0 0.182 0.018 0.255 0.053s0.13 0.086 0.17 0.151c0.039 0.065 0.059 0.139 0.059 0.222 0 0.126-0.043 0.226-0.13 0.299s-0.206 0.109-0.358 0.109h-0.232zM17.892 19.62h0.237c0.070 0 0.124-0.017 0.16-0.049 0.037-0.033 0.056-0.080 0.056-0.142 0-0.003 0-0.006 0-0.010 0-0.055-0.021-0.106-0.056-0.144l0 0c-0.037-0.039-0.088-0.059-0.154-0.060h-0.243v0.405zM19.57 19.731h-0.509v0.345h0.598v0.213h-0.863v-1.288h0.862v0.215h-0.596v0.307h0.51v0.208zM20.802 19.216h-0.395v1.073h-0.265v-1.073h-0.389v-0.215h1.049v0.215zM21.729 19.731h-0.509v0.345h0.598v0.213h-0.863v-1.288h0.862v0.215h-0.596v0.307h0.509v0.208zM22.45 19.817h-0.211v0.472h-0.266v-1.288h0.479c0.152 0 0.269 0.034 0.352 0.102s0.124 0.164 0.124 0.287c0 0.088-0.019 0.162-0.057 0.22-0.043 0.062-0.101 0.11-0.17 0.139l-0.003 0.001 0.279 0.526v0.012h-0.285l-0.241-0.471zM22.238 19.602h0.214c0.066 0 0.118-0.017 0.155-0.050 0.034-0.033 0.055-0.080 0.055-0.131 0-0.003-0-0.007-0-0.010l0 0c0-0.061-0.017-0.109-0.052-0.143s-0.087-0.052-0.158-0.052h-0.213v0.386zM23.797 19.951c0-0.002 0-0.005 0-0.008 0-0.044-0.021-0.083-0.053-0.107l-0-0c-0.035-0.027-0.099-0.056-0.191-0.085-0.085-0.026-0.157-0.056-0.226-0.092l0.008 0.004c-0.146-0.079-0.219-0.186-0.219-0.319 0-0.069 0.020-0.132 0.058-0.186s0.096-0.098 0.169-0.128c0.074-0.030 0.156-0.046 0.248-0.046s0.174 0.017 0.246 0.050c0.072 0.033 0.128 0.080 0.167 0.141s0.060 0.13 0.060 0.207h-0.266c0-0.059-0.018-0.105-0.056-0.137s-0.089-0.049-0.156-0.049c-0.065 0-0.115 0.014-0.151 0.042-0.033 0.024-0.054 0.062-0.054 0.105 0 0.001 0 0.002 0 0.003v-0c0 0.042 0.021 0.077 0.063 0.105s0.105 0.055 0.187 0.079c0.151 0.045 0.261 0.102 0.33 0.169s0.104 0.151 0.104 0.251c0 0.111-0.042 0.199-0.127 0.263s-0.198 0.095-0.34 0.095c-0.099 0-0.189-0.018-0.271-0.054-0.076-0.032-0.14-0.084-0.186-0.148l-0.001-0.001c-0.040-0.059-0.063-0.133-0.063-0.211 0-0.003 0-0.006 0-0.009v0h0.266c0 0.142 0.085 0.213 0.255 0.213 0.063 0 0.112-0.013 0.148-0.038 0.032-0.023 0.053-0.061 0.053-0.103 0-0.002-0-0.003-0-0.005v0z"></path>
</symbol>
<symbol id="iconclient3" viewBox="0 0 32 32">
<path  d="M10.991 21.766c0.005 0 0.010 0.001 0.014 0.003s0.008 0.004 0.012 0.007l-0-0 0.066 0.063c-0.051 0.051-0.114 0.092-0.185 0.12-0.073 0.027-0.157 0.043-0.246 0.043-0.006 0-0.012-0-0.018-0l0.001 0c-0.085 0.002-0.168-0.012-0.247-0.040-0.072-0.026-0.134-0.065-0.187-0.113l0 0c-0.051-0.048-0.091-0.106-0.119-0.171l-0.001-0.003c-0.027-0.064-0.042-0.139-0.042-0.218 0-0.002 0-0.004 0-0.007v0c-0-0.003-0-0.007-0-0.012 0-0.154 0.067-0.292 0.173-0.387l0-0c0.056-0.049 0.123-0.088 0.197-0.114 0.081-0.027 0.168-0.041 0.255-0.040 0.005-0 0.010-0 0.016-0 0.079 0 0.155 0.013 0.225 0.038l-0.005-0.001c0.065 0.025 0.125 0.059 0.177 0.101l-0.055 0.067c-0.004 0.005-0.008 0.009-0.014 0.012l-0 0c-0.005 0.003-0.012 0.005-0.019 0.005-0.001 0-0.002-0-0.003-0h0c-0.009-0-0.017-0.003-0.024-0.007l0 0-0.029-0.018-0.041-0.023c-0.038-0.018-0.081-0.032-0.127-0.040l-0.003-0c-0.027-0.005-0.059-0.007-0.091-0.007-0.003 0-0.005 0-0.008 0h0c-0.002-0-0.004-0-0.006-0-0.063 0-0.124 0.011-0.18 0.031l0.004-0.001c-0.055 0.020-0.103 0.048-0.144 0.085l0-0c-0.041 0.039-0.072 0.085-0.093 0.134s-0.034 0.109-0.034 0.171c0 0.002 0 0.004 0 0.006v-0c-0 0.002-0 0.005-0 0.007 0 0.062 0.012 0.122 0.035 0.176l-0.001-0.003c0.020 0.049 0.051 0.095 0.091 0.134 0.038 0.036 0.085 0.065 0.137 0.083 0.054 0.019 0.111 0.029 0.169 0.029 0.034 0 0.067-0.002 0.101-0.006 0.084-0.009 0.158-0.042 0.218-0.093l-0.001 0c0.008-0.007 0.019-0.011 0.031-0.011h0zM12.892 21.45c0 0.002 0 0.004 0 0.007 0 0.078-0.016 0.152-0.046 0.219l0.001-0.003c-0.029 0.068-0.071 0.126-0.123 0.172l-0 0c-0.055 0.049-0.119 0.087-0.191 0.112l-0.004 0.001c-0.075 0.025-0.161 0.040-0.25 0.040s-0.176-0.015-0.256-0.042l0.006 0.002c-0.075-0.027-0.139-0.065-0.194-0.114l0.001 0c-0.053-0.048-0.095-0.106-0.124-0.171l-0.001-0.003c-0.028-0.066-0.044-0.142-0.044-0.223s0.016-0.157 0.046-0.226l-0.001 0.004c0.028-0.065 0.071-0.125 0.125-0.175 0.055-0.048 0.121-0.085 0.193-0.11 0.075-0.026 0.161-0.041 0.25-0.041s0.176 0.015 0.256 0.042l-0.006-0.002c0.073 0.026 0.139 0.064 0.194 0.113s0.097 0.109 0.124 0.172c0.030 0.072 0.046 0.148 0.044 0.224zM12.719 21.45c0-0.003 0-0.006 0-0.009 0-0.061-0.012-0.119-0.033-0.173l0.001 0.003c-0.040-0.103-0.122-0.182-0.224-0.217l-0.003-0.001c-0.054-0.019-0.117-0.029-0.182-0.029s-0.128 0.011-0.186 0.030l0.004-0.001c-0.054 0.019-0.101 0.048-0.139 0.085l0-0c-0.038 0.036-0.069 0.081-0.088 0.131l-0.001 0.002c-0.020 0.053-0.031 0.115-0.031 0.179s0.011 0.126 0.033 0.182l-0.001-0.004c0.040 0.103 0.123 0.182 0.226 0.217l0.003 0.001c0.117 0.038 0.246 0.038 0.364 0 0.053-0.018 0.1-0.047 0.139-0.084 0.040-0.039 0.069-0.085 0.088-0.134 0.022-0.057 0.033-0.118 0.031-0.179zM14.189 21.638l0.018 0.040c0.006-0.014 0.012-0.027 0.019-0.040 0.007-0.016 0.014-0.028 0.022-0.041l-0.001 0.002 0.421-0.664c0.008-0.011 0.016-0.019 0.024-0.021s0.019-0.004 0.029-0.004c0.002 0 0.004 0 0.006 0h0.124v1.081h-0.147v-0.828c-0-0.006-0.001-0.012-0.001-0.019s0-0.013 0.001-0.020l-0 0.001-0.424 0.674c-0.006 0.010-0.014 0.019-0.024 0.024l-0 0c-0.010 0.006-0.023 0.009-0.036 0.009-0 0-0 0-0.001 0h-0.024c-0 0-0.001 0-0.001 0-0.013 0-0.025-0.003-0.036-0.009l0 0c-0.010-0.006-0.019-0.014-0.024-0.024l-0-0-0.436-0.678v0.867h-0.142v-1.078h0.124c0.002-0 0.004-0 0.006-0 0.010 0 0.020 0.001 0.030 0.004l-0.001-0c0.010 0.005 0.018 0.012 0.023 0.021l0.43 0.665c0.008 0.011 0.015 0.024 0.021 0.037l0.001 0.001zM15.772 21.584v0.405h-0.164v-1.079h0.367c0.069-0.001 0.138 0.007 0.205 0.024 0.053 0.013 0.103 0.036 0.145 0.067 0.035 0.028 0.063 0.063 0.081 0.104l0.001 0.002c0.020 0.044 0.029 0.091 0.028 0.138 0 0.002 0 0.004 0 0.007 0 0.097-0.047 0.184-0.119 0.239l-0.001 0.001c-0.042 0.032-0.092 0.057-0.146 0.071-0.056 0.016-0.119 0.025-0.185 0.025-0.005 0-0.009-0-0.014-0l-0.199-0.003zM15.772 21.468h0.199c0.043 0.001 0.086-0.005 0.128-0.016 0.035-0.010 0.066-0.026 0.093-0.047l-0.001 0c0.046-0.038 0.076-0.096 0.076-0.16 0-0.001 0-0.002-0-0.003v0c0-0.003 0-0.008 0-0.012 0-0.028-0.006-0.054-0.017-0.077l0 0.001c-0.014-0.029-0.033-0.054-0.057-0.073l-0-0c-0.055-0.037-0.123-0.059-0.195-0.059-0.009 0-0.018 0-0.027 0.001l0.001-0h-0.199v0.445zM17.984 21.99h-0.13c-0.001 0-0.002 0-0.002 0-0.013 0-0.024-0.004-0.034-0.010l0 0c-0.009-0.006-0.017-0.015-0.022-0.025l-0-0-0.112-0.261h-0.562l-0.116 0.261c-0.010 0.021-0.031 0.035-0.056 0.035-0.001 0-0.001 0-0.002-0h-0.13l0.494-1.081h0.171l0.501 1.081zM17.169 21.589h0.464l-0.196-0.44c-0.015-0.033-0.027-0.067-0.037-0.101l-0.019 0.056c-0.006 0.017-0.012 0.033-0.018 0.046l-0.194 0.439zM18.696 20.915c0.010 0.005 0.018 0.011 0.024 0.019l0.72 0.815v-0.839h0.147v1.081h-0.082c-0.001 0-0.001 0-0.002 0-0.012 0-0.023-0.002-0.032-0.007l0 0c-0.010-0.005-0.019-0.012-0.026-0.020l-0-0-0.719-0.814c0 0.006 0.001 0.012 0.001 0.019s-0 0.013-0.001 0.019l0-0.001v0.803h-0.147v-1.081h0.087c0.010 0 0.020 0.002 0.030 0.005zM20.801 21.56v0.429h-0.165v-0.429l-0.455-0.651h0.147c0.001-0 0.002-0 0.004-0 0.012 0 0.023 0.003 0.032 0.009l-0-0c0.009 0.007 0.017 0.015 0.022 0.024l0.285 0.42c0.011 0.018 0.021 0.034 0.030 0.050s0.015 0.031 0.021 0.046l0.021-0.047c0.008-0.017 0.017-0.033 0.028-0.049l0.281-0.423c0.006-0.009 0.013-0.016 0.021-0.023l0-0c0.009-0.007 0.020-0.011 0.032-0.011 0.001 0 0.002 0 0.003 0h0.149l-0.456 0.654zM14.107 19.096c0.072 0.008 0.144 0.014 0.217 0.020 1.111-0.432 2.050-1.138 2.701-2.031s0.984-1.933 0.959-2.99l-1.224-1.063c0.249 1.125 0.132 2.288-0.336 3.359s-1.271 2.008-2.318 2.705z"></path>
<path d="M13.671 19.047l0.033 0.006c1.118-0.695 1.97-1.666 2.447-2.786s0.555-2.339 0.226-3.499l-1.743-1.515c0.705 1.245 0.989 2.639 0.818 4.018s-0.788 2.689-1.781 3.775zM19.583 15.344c-0.296 1.161-1.016 2.209-2.051 2.987-0.283 0.215-0.602 0.417-0.938 0.591l-0.037 0.017c0.843-0.215 1.618-0.596 2.266-1.113s1.149-1.156 1.467-1.868l-0.707-0.614z"></path>
<path  d="M19.305 15.173l-1.006-0.875c-0.019 0.997-0.346 1.972-0.945 2.822s-1.45 1.546-2.463 2.015h0.005c0.226 0 0.451-0.012 0.676-0.035 0.947-0.336 1.784-0.87 2.435-1.556s1.098-1.5 1.299-2.371zM13.816 10.614l-1.201-1.045c-1.073 0.36-1.997 0.994-2.649 1.818s-1.003 1.8-1.006 2.8c0.004 1.105 0.432 2.177 1.217 3.047s1.88 1.487 3.114 1.755c1.101-1.166 1.746-2.607 1.841-4.113s-0.366-2.999-1.315-4.263zM22.080 15.012c-0.004-1.311-0.606-2.567-1.672-3.494s-2.513-1.449-4.022-1.453c-0.004 0-0.008 0-0.012 0-0.725 0-1.422 0.121-2.072 0.343l0.045-0.013 7.352 6.389c0.24-0.52 0.38-1.129 0.38-1.771v-0z"></path>
</symbol>
<symbol id="iconclient2" viewBox="0 0 32 32">
<path  d="M15.129 8.735h-0.041c-0.063-0.004-0.127-0.005-0.19-0.007h-0.137c-0.12 0-0.242 0.003-0.363 0.009-0.004-0-0.009-0.001-0.014-0.001s-0.010 0-0.014 0.001l0.001-0c-1.166 0.068-2.248 0.359-3.226 0.832l0.051-0.022-0.13 0.063v6.684l0.306-0.104c0.268-0.092 0.554-0.175 0.849-0.252 0.73-0.195 1.571-0.313 2.437-0.324l0.007-0v0.878c-0.109 0.001-0.215 0.004-0.322 0.009h-0.025c-0.686 0.039-1.329 0.142-1.948 0.304l0.068-0.015c-0.851 0.216-1.596 0.515-2.289 0.898l0.049-0.025v-8.573c0.677-0.402 1.459-0.73 2.288-0.942l0.062-0.014c0.664-0.178 1.426-0.282 2.213-0.286h0.131c0.154 0.004 0.305 0.011 0.446 0.021 0.372 0.026 0.741 0.085 1.103 0.176v0.864c-0.308-0.075-0.673-0.133-1.047-0.16l-0.022-0.001-0.022-0.002c-0.075-0.006-0.149-0.013-0.219-0.013zM16.65 9.618c0.192 0.015 0.39 0.022 0.591 0.022 0.829-0.003 1.631-0.112 2.395-0.314l-0.066 0.015c0.85-0.217 1.596-0.516 2.288-0.898l-0.049 0.025v8.42c-0.677 0.402-1.459 0.73-2.288 0.942l-0.062 0.014c-0.664 0.178-1.427 0.282-2.213 0.285h-0.002c-0.016 0-0.035 0-0.054 0-0.577 0-1.138-0.072-1.672-0.208l0.047 0.010v-8.475c0.13 0.030 0.264 0.058 0.399 0.081 0.223 0.038 0.458 0.065 0.687 0.082zM20.935 9.684l-0.305 0.103c-0.281 0.095-0.565 0.179-0.849 0.254-0.761 0.204-1.635 0.322-2.536 0.325h-0.002c-0.199 0-0.383-0.005-0.56-0.017l-0.244-0.016v6.876l0.209 0.018c0.194 0.017 0.394 0.026 0.596 0.026 0.712-0.003 1.4-0.097 2.055-0.272l-0.057 0.013c0.599-0.152 1.119-0.344 1.612-0.583l-0.050 0.022 0.13-0.063v-6.686z"></path>
<path  d="M10.789 20.592c-0.082-0.085-0.197-0.138-0.324-0.138-0.006 0-0.011 0-0.017 0l0.001-0c-0.002-0-0.004-0-0.007-0-0.068 0-0.133 0.014-0.193 0.038l0.003-0.001c-0.116 0.047-0.206 0.137-0.25 0.251l-0.001 0.003c-0.024 0.060-0.036 0.125-0.035 0.19v1.145c-0.003 0.081 0.013 0.161 0.045 0.235 0.027 0.059 0.066 0.111 0.115 0.154 0.046 0.038 0.099 0.066 0.157 0.081 0.056 0.015 0.114 0.024 0.171 0.024 0.064 0.001 0.127-0.013 0.185-0.040 0.172-0.076 0.29-0.246 0.29-0.442v-0.128h-0.3v0.102c0 0.002 0 0.005 0 0.007 0 0.034-0.006 0.067-0.018 0.097l0.001-0.002c-0.010 0.025-0.025 0.047-0.043 0.065l-0 0c-0.034 0.027-0.078 0.043-0.125 0.044h-0c-0.005 0.001-0.011 0.001-0.018 0.001-0.050 0-0.095-0.024-0.123-0.062l-0-0c-0.025-0.040-0.040-0.089-0.040-0.142 0-0.004 0-0.008 0-0.012l-0 0.001v-1.068c-0.002-0.059 0.011-0.118 0.037-0.171 0.028-0.042 0.075-0.070 0.129-0.070 0.006 0 0.012 0 0.018 0.001l-0.001-0c0.002-0 0.004-0 0.006-0 0.052 0 0.099 0.025 0.128 0.064l0 0c0.031 0.040 0.050 0.092 0.050 0.147 0 0.002-0 0.005-0 0.007v-0 0.099h0.296v-0.117c0-0.002 0-0.003 0-0.005 0-0.070-0.013-0.137-0.038-0.199l0.001 0.004c-0.023-0.063-0.057-0.116-0.1-0.161l0 0zM12.567 20.58c-0.091-0.078-0.21-0.125-0.34-0.126h-0c-0.061 0-0.122 0.011-0.179 0.032-0.124 0.044-0.221 0.135-0.273 0.251l-0.001 0.003c-0.030 0.070-0.045 0.145-0.044 0.222v1.098c-0.002 0.077 0.013 0.154 0.044 0.225 0.027 0.059 0.066 0.112 0.116 0.154 0.046 0.042 0.1 0.075 0.158 0.097 0.057 0.021 0.118 0.032 0.179 0.032 0.131-0 0.25-0.049 0.341-0.129l-0.001 0c0.048-0.043 0.086-0.095 0.113-0.154 0.031-0.071 0.046-0.148 0.044-0.225v-1.099c0-0.003 0-0.006 0-0.010 0-0.077-0.016-0.15-0.045-0.215l0.001 0.003c-0.028-0.063-0.066-0.116-0.113-0.16l-0-0zM12.427 22.060c0 0.005 0.001 0.011 0.001 0.017 0 0.056-0.023 0.106-0.060 0.142l-0 0c-0.038 0.032-0.087 0.051-0.141 0.051s-0.103-0.019-0.141-0.052l0 0c-0.037-0.036-0.060-0.086-0.060-0.142 0-0.006 0-0.012 0.001-0.018l-0 0.001v-1.099c-0-0.005-0.001-0.011-0.001-0.017 0-0.056 0.023-0.106 0.060-0.142l0-0c0.038-0.032 0.087-0.051 0.141-0.051s0.103 0.019 0.141 0.052l-0-0c0.037 0.036 0.060 0.086 0.060 0.142 0 0.006-0 0.012-0.001 0.018l0-0.001v1.099zM14.903 22.551v-2.080h-0.288l-0.378 1.101h-0.005l-0.381-1.101h-0.285v2.079h0.297v-1.265h0.005l0.291 0.894h0.148l0.293-0.894h0.005v1.265h0.297zM16.591 20.617c-0.046-0.051-0.104-0.091-0.168-0.114-0.061-0.021-0.131-0.032-0.204-0.032-0.004 0-0.008 0-0.012 0h-0.441v2.080h0.296v-0.812h0.152c0.093 0.004 0.184-0.015 0.267-0.057 0.068-0.038 0.123-0.092 0.162-0.157l0.001-0.002c0.034-0.055 0.057-0.117 0.068-0.181 0.010-0.065 0.016-0.141 0.016-0.218 0-0.007-0-0.013-0-0.020v0.001c0.003-0.1-0.007-0.2-0.029-0.297-0.021-0.075-0.059-0.139-0.109-0.191l0 0zM16.438 21.251c-0.001 0.040-0.011 0.077-0.028 0.11l0.001-0.002c-0.017 0.032-0.043 0.057-0.075 0.072l-0.001 0c-0.037 0.017-0.079 0.027-0.124 0.027-0.005 0-0.011-0-0.016-0l0.001 0h-0.135v-0.707h0.153c0.004-0 0.009-0 0.014-0 0.043 0 0.084 0.010 0.121 0.027l-0.002-0.001c0.031 0.018 0.055 0.044 0.069 0.076l0 0.001c0.016 0.037 0.025 0.076 0.026 0.116v0.138c0 0.048 0.003 0.098 0 0.143h-0.003zM17.995 20.471h-0.243l-0.458 2.080h0.296l0.087-0.447h0.404l0.087 0.447h0.296l-0.469-2.080zM17.721 21.821l0.146-0.754h0.005l0.145 0.754h-0.296zM19.909 21.724h-0.005l-0.447-1.253h-0.285v2.080h0.296v-1.251h0.006l0.453 1.25h0.279v-2.079h-0.296v1.253zM21.72 20.471l-0.238 0.827h-0.006l-0.238-0.827h-0.313l0.407 1.201v0.879h0.296v-0.879l0.407-1.201h-0.314zM9.962 23.138h0.143v0.401h0.097v-0.401h0.142v-0.082h-0.382v0.082zM11.163 23.056l-0.187 0.483h0.103l0.040-0.11h0.193l0.041 0.11h0.106l-0.192-0.483h-0.103zM11.148 23.348l0.066-0.179 0.066 0.179h-0.131zM12.35 23.361h0.112v0.062c-0.031 0.025-0.071 0.040-0.115 0.041h-0c-0.002 0-0.005 0-0.007 0-0.039 0-0.073-0.018-0.096-0.046l-0-0c-0.022-0.032-0.036-0.072-0.036-0.115 0-0.004 0-0.008 0-0.011l-0 0.001c0-0.107 0.046-0.161 0.139-0.161 0.003-0 0.007-0.001 0.010-0.001 0.048 0 0.088 0.033 0.099 0.077l0 0.001 0.095-0.019c-0.021-0.094-0.088-0.142-0.205-0.142-0.002-0-0.004-0-0.006-0-0.063 0-0.12 0.024-0.163 0.062l0-0c-0.043 0.043-0.070 0.102-0.070 0.168 0 0.006 0 0.013 0.001 0.019l-0-0.001c-0 0.003-0 0.007-0 0.011 0 0.065 0.024 0.124 0.062 0.17l-0-0c0.043 0.044 0.102 0.071 0.168 0.071 0.005 0 0.010-0 0.016-0l-0.001 0c0.002 0 0.005 0 0.008 0 0.076 0 0.145-0.029 0.197-0.077l-0 0v-0.19h-0.209v0.081zM13.562 23.056h-0.098v0.483h0.338v-0.082h-0.24v-0.401zM14.587 23.056h-0.098v0.483h0.098v-0.483zM15.588 23.378l-0.198-0.322h-0.095v0.483h0.091v-0.315l0.194 0.315h0.097v-0.483h-0.090v0.323zM16.494 23.326h0.241v-0.082h-0.241v-0.106h0.259v-0.082h-0.357v0.483h0.366v-0.082h-0.269v-0.131zM18.69 23.246h-0.19v-0.19h-0.097v0.483h0.097v-0.211h0.19v0.211h0.097v-0.483h-0.097v0.191zM19.602 23.326h0.241v-0.082h-0.241v-0.106h0.26v-0.082h-0.356v0.483h0.366v-0.082h-0.269v-0.131zM20.837 23.326c0.084-0.013 0.127-0.058 0.127-0.134 0-0.004 0.001-0.009 0.001-0.014 0-0.039-0.019-0.073-0.048-0.094l-0-0c-0.036-0.018-0.078-0.029-0.122-0.029-0.007 0-0.013 0-0.020 0.001l0.001-0h-0.205v0.483h0.097v-0.202h0.019c0.002-0 0.005-0 0.008-0 0.019 0 0.037 0.004 0.053 0.011l-0.001-0c0.014 0.009 0.026 0.021 0.034 0.035l0.105 0.153h0.116l-0.059-0.094c-0.027-0.047-0.063-0.086-0.106-0.115l-0.001-0.001zM20.739 23.259h-0.072v-0.121h0.076c0.006-0.001 0.013-0.001 0.020-0.001 0.028 0 0.055 0.005 0.080 0.013l-0.002-0c0.013 0.012 0.021 0.029 0.021 0.047 0 0.021-0.010 0.039-0.025 0.051l-0 0c-0.024 0.008-0.052 0.012-0.081 0.012-0.006 0-0.013-0-0.019-0.001l0.001 0zM21.769 23.326h0.24v-0.082h-0.24v-0.106h0.26v-0.082h-0.357v0.483h0.366v-0.082h-0.269v-0.131z"></path>
</symbol>
<symbol id="iconclient1" viewBox="0 0 32 32">
<path d="M11.472 9.057l2.116 2.003-3.927-0.002v9.717h10.264v-3.715l2.113 2.001v-10.003h-10.566zM19.832 16.824l-5.998-5.678h5.998v5.678zM17.969 19.352h-6.685v-6.535h0.472v6.092h6.212v0.442zM12.863 22.068l-0.247 0.509-0.247-0.509h-0.207l0.36 0.678v0.395h0.187v-0.395l0.36-0.678h-0.206zM13.174 23.141l0.087-0.25h0.416l0.088 0.25h0.195l-0.406-1.073h-0.168l-0.405 1.073h0.194zM13.468 22.296l0.155 0.445h-0.311l0.155-0.445zM14.452 22.715c-0.025 0.038-0.040 0.084-0.040 0.134 0 0.001 0 0.001 0 0.002v-0c0 0.091 0.032 0.164 0.095 0.22s0.149 0.084 0.255 0.084c0.106 0 0.198-0.029 0.274-0.086l0.060 0.072h0.208l-0.158-0.187c0.062-0.085 0.093-0.193 0.093-0.325h-0.155c0 0.072-0.015 0.138-0.045 0.197l-0.207-0.245 0.073-0.053c0.044-0.030 0.082-0.067 0.11-0.111l0.001-0.001c0.021-0.035 0.034-0.077 0.034-0.122 0-0.001 0-0.001 0-0.002v0c0-0.001 0-0.003 0-0.004 0-0.066-0.029-0.125-0.075-0.166l-0-0c-0.048-0.043-0.111-0.070-0.181-0.070-0.004 0-0.007 0-0.011 0l0.001-0c-0.086 0-0.155 0.025-0.206 0.074s-0.077 0.115-0.077 0.199c0 0.034 0.008 0.070 0.024 0.107s0.046 0.081 0.088 0.134c-0.079 0.057-0.133 0.106-0.16 0.148zM14.936 22.952c-0.046 0.037-0.105 0.060-0.169 0.060h-0c-0.003 0-0.006 0-0.009 0-0.046 0-0.088-0.018-0.12-0.047l0 0c-0.030-0.029-0.048-0.070-0.048-0.115 0-0.002 0-0.004 0-0.006v0c0-0.057 0.030-0.109 0.088-0.153l0.023-0.016 0.234 0.277zM14.744 22.477c-0.051-0.063-0.076-0.114-0.076-0.155 0-0.036 0.011-0.066 0.031-0.089 0.019-0.022 0.048-0.036 0.079-0.036 0.002 0 0.003 0 0.005 0h-0c0.001-0 0.002-0 0.004-0 0.030 0 0.056 0.012 0.076 0.030l-0-0c0.021 0.020 0.032 0.044 0.032 0.072 0 0.001 0 0.003 0 0.004 0 0.040-0.018 0.076-0.046 0.1l-0 0-0.023 0.018-0.082 0.056zM16.49 23.060c0.074-0.064 0.116-0.154 0.127-0.268h-0.186c-0.010 0.077-0.033 0.131-0.070 0.164s-0.092 0.049-0.165 0.049c-0.080 0-0.141-0.030-0.183-0.091s-0.062-0.149-0.062-0.266v-0.095c0.001-0.115 0.023-0.201 0.066-0.26s0.106-0.089 0.187-0.089c0.070 0 0.123 0.017 0.159 0.051s0.059 0.090 0.068 0.167h0.186c-0.012-0.117-0.054-0.208-0.126-0.273s-0.168-0.097-0.286-0.097c-0.088 0-0.165 0.021-0.233 0.063-0.067 0.043-0.12 0.104-0.153 0.176l-0.001 0.003c-0.034 0.075-0.054 0.163-0.054 0.255 0 0.004 0 0.009 0 0.013v-0.001 0.1c0.002 0.099 0.020 0.185 0.055 0.26s0.086 0.132 0.15 0.173c0.065 0.040 0.141 0.060 0.226 0.060 0.122 0 0.22-0.032 0.294-0.096zM17.586 22.91c0.036-0.080 0.055-0.172 0.055-0.277v-0.059c0-0.003 0-0.007 0-0.011 0-0.095-0.021-0.186-0.058-0.268l0.002 0.004c-0.034-0.076-0.088-0.137-0.155-0.18l-0.002-0.001c-0.068-0.042-0.145-0.063-0.232-0.063s-0.165 0.021-0.233 0.064c-0.067 0.042-0.12 0.103-0.157 0.184-0.035 0.078-0.055 0.168-0.055 0.264 0 0.005 0 0.009 0 0.014v-0.001 0.060c0.001 0.103 0.019 0.193 0.056 0.272s0.090 0.139 0.158 0.182c0.068 0.042 0.146 0.063 0.233 0.063 0.088 0 0.166-0.021 0.233-0.063s0.12-0.104 0.156-0.183zM17.387 22.303c0.045 0.063 0.068 0.155 0.068 0.274v0.056c0 0.121-0.022 0.213-0.067 0.276s-0.107 0.095-0.19 0.095c-0.002 0-0.005 0-0.008 0-0.076 0-0.143-0.038-0.183-0.096l-0-0.001c-0.046-0.064-0.069-0.155-0.069-0.273v-0.062c0.001-0.115 0.024-0.205 0.069-0.267 0.040-0.058 0.107-0.095 0.182-0.095 0.003 0 0.005 0 0.008 0h-0c0.083 0 0.146 0.032 0.191 0.095z"></path>
</symbol>
<symbol id="iconastronaut" viewBox="0 0 32 32">
<path fill="#2196f3" style="fill: var(--color2, #2196f3)" d="M31.973 4.526c-0.059-0.192-0.229-0.334-0.43-0.366l-1.911-0.274-0.855-1.737c-0.178-0.361-0.777-0.361-0.955 0l-0.85 1.737-1.911 0.274c-0.262 0.038-0.46 0.261-0.46 0.53 0 0.151 0.063 0.287 0.163 0.385l0 0 1.385 1.344-0.325 1.902c-0.005 0.026-0.007 0.056-0.007 0.087 0 0.295 0.239 0.535 0.535 0.535 0.089 0 0.174-0.022 0.248-0.061l-0.003 0.001 1.71-0.896 1.705 0.896c0.072 0.039 0.158 0.062 0.25 0.062 0.295 0 0.535-0.239 0.535-0.535 0-0.032-0.003-0.063-0.008-0.093l0 0.003-0.329-1.902 1.385-1.349c0.146-0.137 0.197-0.352 0.137-0.549zM29.513 5.851c-0.128 0.123-0.183 0.297-0.155 0.471l0.192 1.115-1.001-0.526c-0.072-0.039-0.158-0.062-0.249-0.062s-0.177 0.023-0.252 0.064l0.003-0.001-1.001 0.526 0.192-1.115c0.032-0.174-0.027-0.347-0.151-0.471l-0.814-0.791 1.12-0.16c0.174-0.027 0.325-0.137 0.402-0.293l0.503-1.015 0.498 1.015c0.078 0.155 0.229 0.265 0.402 0.293l1.12 0.16-0.809 0.791zM26.135 20.526h-1.070v1.065h1.070v-1.070zM26.135 22.656h-1.070v1.065h1.070v-1.065zM27.2 21.591h-1.065v1.065h1.065v-1.065zM25.065 21.591h-1.065v1.065h1.065v-1.065zM22.4 26.391h-1.065v1.065h1.065v-1.065zM22.4 28.526h-1.065v1.065h1.065v-1.070zM23.465 27.456h-1.065v1.065h1.065v-1.065zM21.335 27.456h-1.070v1.065h1.070v-1.065zM16 24.256h-1.065v1.065h1.065v-1.065zM16 26.391h-1.065v1.065h1.065v-1.065zM17.065 25.326h-1.065v1.065h1.065v-1.070zM14.935 25.326h-1.070v1.065h1.070v-1.070zM5.865 6.126h-1.065v1.065h1.065v-1.070zM5.865 8.256h-1.065v1.065h1.065v-1.065zM6.935 7.191h-1.070v1.065h1.070v-1.065zM4.8 7.191h-1.065v1.065h1.065v-1.065z"></path>
<path fill="#212121" style="fill: var(--color4, #212121)" d="M24.713 14.158c-0.28-0.376-0.699-0.636-1.179-0.703l-0.009-0.001c-0.076-0.012-0.164-0.018-0.253-0.018-0.411 0-0.789 0.139-1.090 0.373l0.004-0.003-1.248 0.96-1.902 1.417-1.358-0.539c2.423-1.088 4.114-3.506 4.114-6.322 0-3.822-3.122-6.93-6.962-6.93s-6.958 3.109-6.958 6.93c0 0.002 0 0.004 0 0.007 0 1.397 0.418 2.697 1.136 3.781l-0.016-0.025-2.77-0.027-0.023 0.005c-0.056 0.001-0.11 0.013-0.158 0.033l0.003-0.001-0.037 0.014-0.023 0.005-3.232 1.6-1.893 0.91c-0.506 0.32-0.837 0.877-0.837 1.511 0 0.985 0.798 1.783 1.783 1.783 0.303 0 0.588-0.075 0.838-0.209l-0.010 0.005 1.385-0.736 2.263-1.17 1.358-0.009-6.779 6.757c-0.306 0.299-0.496 0.716-0.496 1.177s0.19 0.878 0.495 1.177l0 0c0.302 0.302 0.719 0.488 1.179 0.488s0.878-0.187 1.179-0.488v0l1.307-1.312 1.742-1.298 0.901 0.896-1.76 1.755-1.339 1.33c-0.307 0.299-0.498 0.717-0.498 1.179s0.191 0.88 0.498 1.179l0 0c0.302 0.302 0.719 0.488 1.179 0.488s0.878-0.187 1.179-0.488v0l3.483-3.47 1.015-1.006h-0.005l0.018-0.018 5.166-5.659 3.474 0.498c0.019 0.003 0.041 0.004 0.063 0.004 0.071 0 0.139-0.015 0.201-0.042l-0.003 0.001 0.050-0.023c0.018-0.009 0.041-0.014 0.059-0.027l3.214-2.13 0.027-0.032 0.041-0.023 1.271-1.193c0.347-0.326 0.562-0.788 0.562-1.3 0-0.401-0.132-0.771-0.355-1.068l0.003 0.005zM2.13 17.769c-0.109 0.071-0.243 0.113-0.386 0.113-0.396 0-0.716-0.321-0.716-0.716 0-0.252 0.13-0.474 0.327-0.602l0.003-0.002 1.317-0.631 0.315 0.923 0.133 0.389-0.992 0.526zM5.627 15.941l-1.55 0.8-0.256-0.741-0.183-0.535 2.030-1.006-0.041 1.486zM20.727 9.326c0 0.919-0.219 1.783-0.599 2.56l-4.183-1.897c-0.042-0.576-0.341-1.074-0.78-1.386l-0.006-0.004 1.463-4.859c2.377 0.754 4.105 2.971 4.105 5.586zM8.937 9.326c0.011-3.243 2.643-5.868 5.888-5.868 0.266 0 0.528 0.018 0.784 0.052l-0.030-0.003-1.435 4.754-0.055-0.005c0 0 0 0-0 0-1.032 0-1.869 0.834-1.874 1.865v0.001c0.012 1.026 0.847 1.852 1.874 1.852 0.687 0 1.287-0.369 1.614-0.92l0.005-0.009 3.858 1.755c-1.085 1.458-2.804 2.393-4.741 2.393-3.245 0-5.878-2.624-5.893-5.866v-0.001zM14.894 10.126c0 0.446-0.361 0.807-0.807 0.807s-0.807-0.361-0.807-0.807v0c0.033-0.42 0.381-0.748 0.807-0.748s0.774 0.328 0.807 0.746l0 0.003zM2.469 25.147c-0.233 0.233-0.617 0.229-0.855 0-0.109-0.108-0.177-0.257-0.177-0.423s0.068-0.315 0.177-0.423l0.96-0.96 0.855 0.85-0.965 0.951zM5.682 28.878c-0.233 0.238-0.617 0.238-0.855 0-0.108-0.108-0.174-0.256-0.174-0.421s0.067-0.313 0.174-0.421v0l0.96-0.96 0.855 0.846-0.96 0.96zM9.166 25.413l-1.769 1.76-0.85-0.85 1.765-1.751c0.041-0.046 0.064-0.091 0.091-0.137l0.023-0.046c0.018-0.037 0.023-0.082 0.027-0.123 0-0.027 0.014-0.046 0.014-0.073 0-0.037-0.014-0.073-0.018-0.105l-0.018-0.096c-0.023-0.050-0.055-0.091-0.091-0.137l-0.027-0.041-1.609-1.6c-0.014-0.018-0.037-0.023-0.055-0.037-0.032-0.023-0.059-0.046-0.091-0.059-0.026-0.012-0.056-0.023-0.088-0.031l-0.003-0.001c-0.029-0.010-0.063-0.018-0.098-0.023l-0.003-0c-0.032 0-0.064 0-0.096 0.009-0.037 0-0.069 0.009-0.105 0.018-0.035 0.012-0.065 0.027-0.093 0.046l0.001-0.001c-0.023 0.009-0.046 0.014-0.064 0.027l-1.774 1.326-0.901-0.901 2.4-2.386 4.361 4.293-0.928 0.914zM15.982 18.395h-0.046c-0.007-0-0.016-0.001-0.025-0.001-0.137 0-0.262 0.052-0.355 0.138l0-0-0.041 0.032-4.699 5.143-4.325-4.251 2.834-2.821c0.098-0.097 0.158-0.231 0.158-0.379 0-0.295-0.239-0.535-0.535-0.535-0.002 0-0.005 0-0.007 0h0l-2.217 0.014 0.027-1.609 3.104 0.027c1.263 1.296 3.026 2.099 4.977 2.099 0.455 0 0.899-0.044 1.33-0.127l-0.044 0.007c0.037 0.032 0.078 0.064 0.128 0.087l2.409 0.96 0.151 0.759 0.183 0.882-3.008-0.425zM20.023 18.574l-0.311-1.559 1.445-1.079 0.379 0.503 0.567 0.75-2.080 1.385zM23.781 15.739l-0.841 0.786-0.928-1.234 0.827-0.64c0.122-0.093 0.276-0.149 0.443-0.149 0.037 0 0.074 0.003 0.11 0.008l-0.004-0.001c0.352 0.050 0.62 0.349 0.62 0.711 0 0.206-0.087 0.392-0.226 0.523l-0 0z"></path>
<path fill="#212121" style="fill: var(--color4, #212121)" d="M13.6 18.546l-2.139-2.135c-0.097-0.096-0.23-0.156-0.377-0.156s-0.28 0.059-0.377 0.156l0-0-2.144 2.135c-0.096 0.097-0.156 0.23-0.156 0.377s0.059 0.28 0.156 0.377l-0-0 2.144 2.135c0.097 0.096 0.23 0.156 0.377 0.156s0.28-0.059 0.377-0.156l-0 0 2.139-2.135c0.096-0.097 0.156-0.23 0.156-0.377s-0.059-0.28-0.156-0.377l0 0zM11.086 20.302l-1.394-1.376 1.385-1.381 1.39 1.381-1.39 1.381zM17.166 5.074l-0.261 1.033c0.073 0.018 1.737 0.453 1.737 2.149h1.070c0-2.016-1.669-2.967-2.546-3.186zM19.712 9.326h-1.070v1.065h1.070v-1.070z"></path>
</symbol>
<symbol id="iconclock" viewBox="0 0 32 32">
<path fill="#212121" style="fill: var(--color4, #212121)" d="M31.296 15.301c-0.001-8.452-6.853-15.303-15.305-15.303s-15.305 6.852-15.305 15.305c0 6.79 4.422 12.548 10.543 14.55l0.108 0.031c0.057 0.017 0.123 0.027 0.191 0.027 0.125 0 0.242-0.034 0.343-0.093l-0.003 0.002c0.137-0.082 0.233-0.206 0.283-0.357l3.863-12.251c1.048-0.009 1.895-0.861 1.895-1.911 0-1.055-0.856-1.911-1.911-1.911-0.3 0-0.584 0.069-0.836 0.192l0.011-0.005-5.102-5.106c-0.112-0.098-0.259-0.158-0.421-0.158-0.353 0-0.64 0.287-0.64 0.64 0 0.16 0.059 0.307 0.156 0.419l-0.001-0.001 5.106 5.111c-0.121 0.241-0.192 0.526-0.192 0.826 0 0.601 0.283 1.136 0.723 1.479l0.004 0.003-3.685 11.671c-5.408-2.035-9.186-7.165-9.186-13.177 0-7.756 6.287-14.043 14.043-14.043s14.043 6.287 14.043 14.043c0 5.688-3.381 10.586-8.243 12.793l-0.088 0.036-0.398-1.874c-0.066-0.289-0.32-0.502-0.625-0.502-0.162 0-0.31 0.060-0.423 0.159l0.001-0.001-3.84 3.429c-0.127 0.117-0.207 0.285-0.207 0.471 0 0.282 0.182 0.521 0.435 0.607l0.005 0.001 4.901 1.563c0.057 0.019 0.123 0.029 0.192 0.029 0.353 0 0.64-0.287 0.64-0.64 0-0.046-0.005-0.091-0.014-0.134l0.001 0.004-0.393-1.838c5.529-2.374 9.33-7.772 9.33-14.057 0-0.011 0-0.022-0-0.034v0.002zM15.991 14.661c0.353 0 0.64 0.287 0.64 0.64s-0.287 0.64-0.64 0.64v0c-0.353 0-0.64-0.287-0.64-0.64s0.287-0.64 0.64-0.64v0zM18.094 29.527l2.185-1.947 0.599 2.839-2.789-0.891z"></path>
<path fill="#2196f3" style="fill: var(--color2, #2196f3)" d="M15.355 3.186v1.275c-0.001 0.016-0.002 0.035-0.002 0.054 0 0.353 0.287 0.64 0.64 0.64s0.64-0.287 0.64-0.64c0-0.019-0.001-0.038-0.002-0.056l0 0.002v-1.28c0-0.353-0.287-0.64-0.64-0.64s-0.64 0.287-0.64 0.64v0zM3.877 14.665c-0.329 0.029-0.586 0.303-0.586 0.638s0.257 0.609 0.584 0.638l0.002 0h1.275c0.353 0 0.64-0.287 0.64-0.64s-0.287-0.64-0.64-0.64h-1.28zM28.11 15.941c0.353 0 0.64-0.287 0.64-0.64s-0.287-0.64-0.64-0.64h-1.28c-0.353 0-0.64 0.287-0.64 0.64s0.287 0.64 0.64 0.64h1.28z"></path>
</symbol>
<symbol id="icontwitter" viewBox="0 0 32 32">
<path  d="M32 6.080c-1.098 0.493-2.372 0.859-3.707 1.033l-0.069 0.007c1.36-0.816 2.4-2.080 2.88-3.632-1.28 0.752-2.672 1.28-4.16 1.6-1.202-1.298-2.915-2.107-4.817-2.107-3.623 0-6.56 2.937-6.56 6.56 0 0.538 0.065 1.060 0.187 1.56l-0.009-0.045c-5.462-0.281-10.265-2.883-13.477-6.83l-0.027-0.034c-0.558 0.949-0.887 2.089-0.887 3.307 0 2.26 1.134 4.255 2.865 5.446l0.022 0.014c-1.040 0-2.080-0.32-2.96-0.8v0.064c0 3.2 2.272 5.84 5.264 6.448-0.518 0.147-1.113 0.232-1.728 0.232-0.442 0-0.873-0.044-1.29-0.127l0.042 0.007c0.878 2.623 3.284 4.493 6.136 4.56l0.008 0c-2.221 1.763-5.066 2.828-8.159 2.828-0.547 0-1.087-0.033-1.617-0.098l0.064 0.006c2.826 1.846 6.286 2.944 10.003 2.944 0.022 0 0.043-0 0.065-0h-0.003c12.080 0 18.672-10 18.672-18.672 0-0.288 0-0.576-0.032-0.848 1.312-0.928 2.4-2.080 3.296-3.408z"></path>
</symbol>
<symbol id="iconantenna" viewBox="0 0 32 32">
<path fill="#212121" style="fill: var(--color4, #212121)" d="M30.775 22.098l-8.443-8.503 0.937-4.617c0.242 0.091 0.498 0.142 0.759 0.146h0.005c0.006 0 0.014 0 0.022 0 1.192 0 2.158-0.966 2.158-2.158s-0.966-2.158-2.158-2.158c-1.192 0-2.158 0.966-2.158 2.158 0 0.259 0.046 0.507 0.129 0.737l-0.005-0.015-4.955 0.603-8.091-8.133c-0.097-0.098-0.231-0.159-0.379-0.16h-0c-0.137 0-0.274 0.055-0.37 0.155l-1.513 1.504c-0.21 0.21-0.21 0.549 0 0.754l0.814 0.823c-1.143 2.062-1.816 4.522-1.816 7.14 0 4.106 1.656 7.824 4.336 10.525l-0.001-0.001c0.046 0.046 0.091 0.073 0.146 0.101-0.032 0.183-0.050 0.366-0.050 0.549v6.185h-6.4c0 0 0 0 0 0-1.473 0-2.667 1.193-2.67 2.665v1.065c0 0.297 0.238 0.535 0.535 0.535h24.535c0.293 0 0.53-0.238 0.53-0.535v-1.065c-0.003-1.471-1.194-2.663-2.665-2.665h-6.4v-2.743c0.915 0.2 1.966 0.315 3.043 0.315 2.581 0 5.008-0.659 7.123-1.817l-0.077 0.039 0.818 0.823c0.095 0.1 0.229 0.161 0.377 0.161 0.146 0 0.278-0.060 0.373-0.157l1.509-1.509c0.21-0.206 0.21-0.544 0-0.75zM23.278 6.235c0.193-0.192 0.458-0.311 0.752-0.311 0.588 0 1.065 0.477 1.065 1.065s-0.476 1.064-1.063 1.065h-0c-0.001 0-0.001 0-0.002 0-0.588 0-1.065-0.477-1.065-1.065 0-0.297 0.122-0.566 0.318-0.759l0-0zM22.025 9.737l-0.599 2.944-1.175-1.179 1.774-1.765zM21.417 8.837l-1.92 1.906-1.486-1.49 3.406-0.416zM24.005 28.8c0.884 0 1.6 0.716 1.6 1.6v0 0.535h-23.465v-0.535c0-0.884 0.716-1.6 1.6-1.6v0h20.261zM16.539 26.665v1.070h-5.339v-1.070h5.335zM11.2 25.6v-4.055c0-1.294 1.198-2.345 2.665-2.345 1.472 0 2.67 1.051 2.67 2.345v4.055h-5.335zM17.6 23.904v-2.359c0-1.879-1.673-3.41-3.735-3.41-0.018-0-0.040-0-0.062-0-1.351 0-2.537 0.705-3.211 1.768l-0.009 0.016c-2.359-2.481-3.809-5.845-3.809-9.548 0-2.314 0.567-4.496 1.569-6.415l-0.036 0.077 18.606 18.711c-1.822 0.946-3.978 1.501-6.264 1.501-1.080 0-2.132-0.124-3.141-0.358l0.093 0.018zM28.891 23.218l-0.754-0.754-20.302-20.425 0.754-0.75 21.061 21.179-0.759 0.75z"></path>
<path fill="#2196f3" style="fill: var(--color2, #2196f3)" d="M13.874 20.265c-0.001 0-0.003 0-0.005 0-0.884 0-1.6 0.716-1.6 1.6 0 0.882 0.714 1.597 1.595 1.6h0.005c0.001 0 0.001 0 0.002 0 0.884 0 1.6-0.716 1.6-1.6s-0.715-1.599-1.598-1.6h-0zM14.249 22.245c-0.097 0.096-0.23 0.155-0.377 0.155-0.295 0-0.535-0.239-0.535-0.535s0.238-0.533 0.532-0.535h0c0.294 0.001 0.533 0.24 0.533 0.535 0 0.148-0.060 0.283-0.158 0.379l-0 0z"></path>
</symbol>
<symbol id="iconsmartphone" viewBox="0 0 32 32">
<path  d="M23 0h-14c-1.66 0-3 1.34-3 3v26c0 1.66 1.34 3 3 3h14c1.66 0 3-1.34 3-3v-26c0-1.66-1.34-3-3-3zM9 2h14c0.56 0 1 0.44 1 1v21h-16v-21c0-0.56 0.44-1 1-1zM23 30h-14c-0.552 0-1-0.448-1-1v0-3h16v3c0 0.552-0.448 1-1 1v0z"></path>
<path  d="M10.7 27.48c0.4 0.36 0.4 0.96 0 1.32-0.186 0.164-0.431 0.264-0.7 0.264s-0.514-0.1-0.701-0.265l0.001 0.001c-0.177-0.165-0.288-0.399-0.288-0.66s0.111-0.495 0.288-0.659l0.001-0.001c0.4-0.36 1-0.36 1.4 0z"></path>
</symbol>
<symbol id="icondiagram" viewBox="0 0 32 32">
<path fill="#2196f3" style="fill: var(--color2, #2196f3)" d="M14.926 14.967h1.065v4.795h-1.065v-4.8zM19.191 17.097h1.065v2.665h-1.065v-2.665zM10.661 18.697h1.065v1.065h-1.065v-1.065zM7.461 18.162h1.070v1.6h-1.070v-1.6z"></path>
<path fill="#212121" style="fill: var(--color4, #212121)" d="M1.6 28.293h25.586c0.884 0 1.6-0.716 1.6-1.6v0-2.135c0-0.884-0.716-1.6-1.6-1.6v0h-0.535v-13.285l3.031-2.871c0.207 0.104 0.45 0.164 0.708 0.164 0.889 0 1.609-0.72 1.609-1.609s-0.72-1.609-1.609-1.609c-0.889 0-1.609 0.72-1.609 1.609 0 0.247 0.056 0.482 0.156 0.691l-0.004-0.010-2.281 2.162v-1.23c0-0.884-0.716-1.6-1.6-1.6v0h-21.321c-0.884 0-1.6 0.716-1.6 1.6v0 15.995h-0.53c-0.884 0-1.6 0.716-1.6 1.6v0 2.13c0 0.884 0.716 1.6 1.6 1.6v0zM30.386 4.837c0.015-0.001 0.032-0.002 0.049-0.002 0.295 0 0.535 0.239 0.535 0.535s-0.239 0.535-0.535 0.535c-0.017 0-0.035-0.001-0.052-0.002l0.002 0c-0.273-0.026-0.485-0.255-0.485-0.533s0.212-0.506 0.483-0.532l0.002-0zM3.2 6.967c0-0.293 0.238-0.53 0.53-0.53h21.321c0.297 0 0.535 0.238 0.535 0.53v2.24l-1.065 1.015v-2.185c0-0.297-0.238-0.535-0.535-0.535h-19.186c-0.293 0-0.53 0.238-0.53 0.535v13.326c0 0.293 0.238 0.53 0.53 0.53h19.191c0.297 0 0.535-0.238 0.535-0.53v-9.673l1.065-1.010v12.283h-22.391v-15.995zM8 13.897c-0.004-0-0.009-0-0.013-0-0.884 0-1.6 0.716-1.6 1.6s0.716 1.6 1.6 1.6c0.434 0 0.827-0.173 1.115-0.453l-0 0 1.856 0.933c0.215 0.105 0.475 0.055 0.635-0.123l3.936-4.434 3.872 2.903c0.21 0.155 0.503 0.137 0.686-0.037l3.369-3.191v8.137h-18.126v-12.27h18.126v2.661l-3.771 3.57-3.904-2.926c-0.088-0.067-0.2-0.107-0.322-0.107-0.159 0-0.302 0.070-0.4 0.18l-0 0.001-3.991 4.494-1.495-0.75c0.011-0.056 0.019-0.122 0.023-0.189l0-0.003c0-0.884-0.716-1.6-1.6-1.6v0zM8.53 15.497c0 0.295-0.239 0.535-0.535 0.535s-0.535-0.239-0.535-0.535v0c0-0.295 0.239-0.535 0.535-0.535s0.535 0.239 0.535 0.535v0zM11.73 24.027h5.321v0.53c0 0.297-0.238 0.535-0.53 0.535h-4.265c-0.293 0-0.535-0.238-0.535-0.535v-0.53zM1.061 24.558c0-0.293 0.238-0.53 0.535-0.53h9.061v0.53c0 0.884 0.716 1.6 1.6 1.6v0h4.265c0.884 0 1.6-0.716 1.6-1.6v0-0.53h9.061c0.293 0 0.53 0.238 0.53 0.53v2.135c0 0.293-0.238 0.53-0.53 0.53h-25.582c-0.297 0-0.535-0.238-0.535-0.53v-2.135z"></path>
</symbol>
<symbol id="iconenvelope" viewBox="0 0 32 32">
<path  d="M29 4h-26c-1.66 0-3 1.34-3 3v18c0 1.66 1.34 3 3 3h26c1.66 0 3-1.34 3-3v-18c0-1.66-1.34-3-3-3zM29 6c0.002-0 0.005-0 0.008-0 0.142 0 0.276 0.029 0.398 0.083l-0.006-0.003-13.4 11.6-13.4-11.6c0.116-0.051 0.25-0.080 0.392-0.080 0.003 0 0.006 0 0.008 0h26zM29 26h-26c-0.552 0-1-0.448-1-1v0-16.8l13.34 11.56c0.175 0.154 0.407 0.249 0.66 0.249s0.485-0.094 0.661-0.25l-0.001 0.001 13.34-11.56v16.8c0 0.552-0.448 1-1 1v0z"></path>
</symbol>
<symbol id="iconfacebook" viewBox="0 0 32 32">
<path  d="M21.328 5.312h2.928v-5.088c-0.512-0.064-2.24-0.224-4.256-0.224-4.224 0-7.104 2.656-7.104 7.52v4.48h-4.64v5.68h4.64v14.32h5.696v-14.304h4.464l0.704-5.696h-5.168v-3.92c0-1.648 0.448-2.768 2.736-2.768z"></path>
</symbol>
<symbol id="iconinstagram" viewBox="0 0 32 32">
<path  d="M31.968 9.408c-0.024-1.403-0.292-2.735-0.763-3.968l0.027 0.080c-0.427-1.109-1.058-2.054-1.854-2.83l-0.002-0.002c-0.8-0.8-1.76-1.44-2.832-1.84-1.151-0.448-2.483-0.721-3.875-0.752l-0.013-0c-1.458-0.070-3.167-0.109-4.885-0.109-0.6 0-1.199 0.005-1.797 0.014l0.090-0.001c-4.352 0-4.896 0.016-6.592 0.096-1.712 0.064-2.88 0.352-3.888 0.736-1.107 0.432-2.051 1.063-2.831 1.855l-0.001 0.001c-0.793 0.781-1.424 1.725-1.837 2.778l-0.019 0.054c-0.443 1.152-0.711 2.485-0.736 3.877l-0 0.011c-0.070 1.458-0.109 3.167-0.109 4.885 0 0.6 0.005 1.199 0.014 1.797l-0.001-0.090c0 4.352 0 4.896 0.080 6.592 0.030 1.405 0.303 2.737 0.779 3.968l-0.027-0.080c0.4 1.072 1.040 2.032 1.856 2.832 0.781 0.793 1.725 1.424 2.778 1.837l0.054 0.019c1.008 0.384 2.176 0.656 3.872 0.736 1.712 0.080 2.24 0.096 6.592 0.096s4.896-0.016 6.608-0.096c1.397-0.026 2.724-0.294 3.952-0.763l-0.080 0.027c2.16-0.851 3.837-2.528 4.669-4.633l0.019-0.055c0.384-1.024 0.672-2.176 0.736-3.888 0.080-1.696 0.096-2.24 0.096-6.592 0-4.336 0-4.88-0.080-6.592zM29.088 22.48c-0.064 1.552-0.32 2.4-0.544 2.96-0.552 1.401-1.639 2.488-3.004 3.027l-0.036 0.013c-0.56 0.224-1.424 0.48-2.976 0.544-1.68 0.080-2.192 0.096-6.464 0.096-0.465 0.007-1.013 0.011-1.562 0.011-1.724 0-3.439-0.039-5.144-0.116l0.242 0.009c-1.568-0.064-2.4-0.32-2.96-0.544-0.722-0.271-1.337-0.68-1.839-1.199l-0.001-0.001c-0.518-0.5-0.926-1.108-1.189-1.79l-0.011-0.034c-0.336-0.884-0.535-1.905-0.544-2.972l-0-0.004c-0.068-1.463-0.107-3.179-0.107-4.903 0-0.549 0.004-1.097 0.012-1.643l-0.001 0.083c0-4.272 0.016-4.784 0.096-6.464 0.064-1.568 0.32-2.4 0.544-2.976 0.256-0.688 0.656-1.312 1.2-1.824 0.504-0.519 1.118-0.928 1.806-1.189l0.034-0.011c0.56-0.224 1.408-0.48 2.976-0.544 1.68-0.080 2.192-0.096 6.448-0.096 4.288 0 4.8 0 6.464 0.096 1.568 0.064 2.4 0.32 2.976 0.544 0.688 0.256 1.328 0.656 1.84 1.2 0.528 0.512 0.944 1.136 1.2 1.824 0.208 0.576 0.48 1.424 0.544 2.976 0.080 1.68 0.096 2.192 0.096 6.464s-0.016 4.768-0.096 6.464z"></path>
<path  d="M16.064 7.776c-4.542 0-8.224 3.682-8.224 8.224s3.682 8.224 8.224 8.224v0c4.542 0 8.224-3.682 8.224-8.224s-3.682-8.224-8.224-8.224v0zM16.064 21.328c-2.943 0-5.328-2.385-5.328-5.328s2.385-5.328 5.328-5.328v0c2.943 0 5.328 2.385 5.328 5.328s-2.385 5.328-5.328 5.328v0zM26.528 7.456c0 1.060-0.86 1.92-1.92 1.92s-1.92-0.86-1.92-1.92v0c0-1.060 0.86-1.92 1.92-1.92s1.92 0.86 1.92 1.92v0z"></path>
</symbol>
<symbol id="iconlinkedin" viewBox="0 0 32 32">
<path  d="M32 32v-11.744c0-5.728-1.232-10.16-7.952-10.16-0.076-0.003-0.166-0.005-0.256-0.005-2.555 0-4.788 1.376-5.999 3.428l-0.018 0.032h-0.096v-2.912h-6.368v21.36h6.64v-10.576c0-2.784 0.528-5.488 3.968-5.488 3.408 0 3.456 3.184 3.456 5.664v10.4h6.624zM0.528 10.64h6.64v21.36h-6.64v-21.36zM3.84 0c-2.121 0-3.84 1.719-3.84 3.84v0c-0 0.005-0 0.010-0 0.016 0 2.127 1.715 3.854 3.838 3.872h0.002c2.128 0 3.84-1.76 3.84-3.888 0-2.121-1.719-3.84-3.84-3.84v0z"></path>
</symbol>
<symbol id="icontip" viewBox="0 0 42 32">
<path fill="#fff" style="fill: var(--color1, #fff); stroke: var(--color1, #fff)" stroke="#fff" stroke-linejoin="miter" stroke-linecap="butt" stroke-miterlimit="4" stroke-width="0.64" d="M6.262 15.206l-0.221-0.211-0.221 0.208-3.085 2.925 0.243 0.234 11.408 10.88 0.221-0.211 24.256-23.139-0.243-0.23-3.043-2.902-0.221 0.211-20.97 19.987-8.125-7.75z"></path>
</symbol>
<symbol id="iconfoster" viewBox="0 0 65 32">
<path  d="M10.016 9.983h-0.002c-1.827 0-3.308 1.316-3.308 2.94v0.002c0 1.624 1.481 2.94 3.308 2.94h0.002c1.827 0 3.308-1.316 3.308-2.94v-0.002c0-1.624-1.481-2.94-3.308-2.94z"></path>
<path  d="M34.434 9.043c-0.005-2.255-1.015-4.417-2.81-6.012s-4.226-2.493-6.764-2.498v0c-2.538 0.004-4.972 0.902-6.767 2.497s-2.806 3.757-2.811 6.013v12.436c0 0 19.149-1.895 19.151-12.434v-0.002z"></path>
<path  d="M0 25.562c0.005 1.569 0.708 3.073 1.956 4.183s2.94 1.735 4.706 1.74c1.765-0.005 3.457-0.63 4.705-1.739s1.952-2.613 1.957-4.182v-8.654c0 0-13.325 1.32-13.325 8.652zM6.662 27.112c-0.345 0-0.682-0.091-0.969-0.261s-0.511-0.413-0.643-0.696c-0.132-0.283-0.167-0.595-0.099-0.896s0.233-0.577 0.477-0.794 0.555-0.364 0.893-0.424c0.338-0.060 0.689-0.029 1.008 0.088s0.591 0.316 0.783 0.571c0.192 0.255 0.294 0.555 0.294 0.861 0.001 0.204-0.044 0.406-0.131 0.595s-0.216 0.36-0.378 0.505c-0.162 0.145-0.355 0.259-0.567 0.338s-0.439 0.119-0.669 0.119v-0.006z"></path>
<path d="M20.128 26.258h-1.286v1.328h-0.67v-3.25h2.116v0.542h-1.446v0.839h1.286v0.54zM23.346 26.035c0 0.32-0.057 0.6-0.17 0.842s-0.275 0.427-0.487 0.558c-0.21 0.131-0.451 0.196-0.723 0.196-0.269 0-0.51-0.065-0.721-0.194s-0.375-0.314-0.491-0.554c-0.116-0.241-0.175-0.518-0.176-0.83v-0.161c0-0.32 0.057-0.601 0.172-0.844 0.116-0.244 0.279-0.431 0.489-0.56 0.211-0.131 0.452-0.196 0.723-0.196s0.511 0.065 0.721 0.196c0.211 0.129 0.374 0.316 0.489 0.56 0.116 0.242 0.174 0.523 0.174 0.841v0.145zM22.668 25.888c0-0.341-0.061-0.6-0.183-0.777s-0.296-0.266-0.522-0.266c-0.225 0-0.398 0.088-0.52 0.263-0.122 0.174-0.184 0.43-0.185 0.768v0.158c0 0.332 0.061 0.589 0.183 0.772s0.298 0.275 0.527 0.275c0.225 0 0.397-0.088 0.518-0.263 0.121-0.177 0.182-0.434 0.183-0.772v-0.158zM25.518 26.734c0-0.126-0.045-0.223-0.134-0.29-0.089-0.068-0.25-0.14-0.482-0.214-0.232-0.076-0.416-0.15-0.551-0.223-0.369-0.199-0.554-0.468-0.554-0.806 0-0.176 0.049-0.332 0.147-0.469 0.1-0.138 0.242-0.246 0.426-0.324 0.186-0.077 0.394-0.116 0.625-0.116 0.232 0 0.439 0.042 0.62 0.127 0.182 0.083 0.322 0.202 0.422 0.355 0.101 0.153 0.152 0.327 0.152 0.522h-0.67c0-0.149-0.047-0.264-0.141-0.346-0.094-0.083-0.225-0.125-0.395-0.125-0.164 0-0.291 0.035-0.382 0.105-0.091 0.068-0.136 0.159-0.136 0.272 0 0.106 0.053 0.194 0.158 0.266 0.107 0.071 0.264 0.138 0.471 0.201 0.381 0.115 0.659 0.257 0.833 0.426s0.261 0.381 0.261 0.634c0 0.281-0.106 0.502-0.319 0.663-0.213 0.159-0.499 0.239-0.859 0.239-0.25 0-0.478-0.045-0.683-0.136-0.205-0.092-0.362-0.218-0.471-0.377-0.107-0.159-0.161-0.344-0.161-0.554h0.672c0 0.359 0.214 0.538 0.643 0.538 0.159 0 0.284-0.032 0.373-0.096 0.089-0.065 0.134-0.156 0.134-0.272zM29.092 24.879h-0.995v2.708h-0.67v-2.708h-0.982v-0.542h2.647v0.542zM31.431 26.178h-1.286v0.871h1.509v0.538h-2.178v-3.25h2.174v0.542h-1.504v0.775h1.286v0.525zM33.251 26.396h-0.533v1.19h-0.67v-3.25h1.208c0.384 0 0.68 0.086 0.888 0.257s0.313 0.413 0.313 0.725c0 0.222-0.048 0.407-0.145 0.556-0.095 0.147-0.24 0.265-0.435 0.353l0.703 1.328v0.031h-0.719l-0.609-1.19zM32.717 25.854h0.54c0.168 0 0.298-0.042 0.391-0.127 0.092-0.086 0.138-0.205 0.138-0.355 0-0.153-0.044-0.274-0.132-0.362-0.086-0.088-0.219-0.132-0.4-0.132h-0.538v0.975zM36.775 26.441v1.145h-0.67v-3.25h1.268c0.244 0 0.458 0.045 0.643 0.134 0.186 0.089 0.329 0.216 0.429 0.382 0.1 0.164 0.15 0.35 0.15 0.56 0 0.318-0.109 0.57-0.328 0.754-0.217 0.183-0.519 0.275-0.904 0.275h-0.587zM36.775 25.899h0.598c0.177 0 0.312-0.042 0.404-0.125 0.094-0.083 0.141-0.202 0.141-0.357 0-0.159-0.047-0.288-0.141-0.386s-0.223-0.149-0.388-0.152h-0.614v1.020zM41.012 26.178h-1.286v0.871h1.509v0.538h-2.178v-3.25h2.174v0.542h-1.504v0.775h1.286v0.525zM44.119 24.879h-0.995v2.708h-0.67v-2.708h-0.982v-0.542h2.647v0.542zM46.458 26.178h-1.286v0.871h1.509v0.538h-2.179v-3.25h2.174v0.542h-1.504v0.775h1.286v0.525zM48.277 26.396h-0.533v1.19h-0.67v-3.25h1.208c0.384 0 0.68 0.086 0.888 0.257s0.312 0.413 0.312 0.725c0 0.222-0.048 0.407-0.145 0.556-0.095 0.147-0.24 0.265-0.435 0.353l0.703 1.328v0.031h-0.719l-0.609-1.19zM47.744 25.854h0.54c0.168 0 0.298-0.042 0.391-0.127 0.092-0.086 0.138-0.205 0.138-0.355 0-0.153-0.044-0.274-0.132-0.362-0.086-0.088-0.219-0.132-0.4-0.132h-0.538v0.975zM51.679 26.734c0-0.126-0.045-0.223-0.134-0.29-0.089-0.068-0.25-0.14-0.482-0.214-0.232-0.076-0.416-0.15-0.551-0.223-0.369-0.199-0.554-0.468-0.554-0.806 0-0.176 0.049-0.332 0.147-0.469 0.1-0.138 0.242-0.246 0.426-0.324 0.186-0.077 0.394-0.116 0.625-0.116 0.232 0 0.439 0.042 0.621 0.127 0.181 0.083 0.322 0.202 0.422 0.355 0.101 0.153 0.152 0.327 0.152 0.522h-0.67c0-0.149-0.047-0.264-0.141-0.346-0.094-0.083-0.225-0.125-0.395-0.125-0.164 0-0.291 0.035-0.382 0.105-0.091 0.068-0.136 0.159-0.136 0.272 0 0.106 0.053 0.194 0.158 0.266 0.107 0.071 0.264 0.138 0.471 0.201 0.381 0.115 0.658 0.257 0.833 0.426s0.261 0.381 0.261 0.634c0 0.281-0.106 0.502-0.319 0.663-0.213 0.159-0.499 0.239-0.859 0.239-0.25 0-0.478-0.045-0.683-0.136-0.205-0.092-0.362-0.218-0.471-0.377-0.107-0.159-0.161-0.344-0.161-0.554h0.672c0 0.359 0.214 0.538 0.643 0.538 0.159 0 0.283-0.032 0.373-0.096 0.089-0.065 0.134-0.156 0.134-0.272z"></path>
</symbol>
</defs>
</svg>
